<svg width="20" height="20" viewBox="0 0 20 20" fill="none" xmlns="http://www.w3.org/2000/svg">
  <path d="M19.5 10C19.5 8.5 18.5 6.5 16.5 5C14.5 3.5 12 3 10 3C8 3 5.5 3.5 3.5 5C1.5 6.5 0.5 8.5 0.5 10C0.5 11.5 1.5 13.5 3.5 15C5.5 16.5 8 17 10 17C12 17 14.5 16.5 16.5 15C18.5 13.5 19.5 11.5 19.5 10Z" fill="#52B788" fill-opacity="0.6"/>
  <path d="M10 3C10 3 15 5 17 10C15 15 10 17 10 17C10 15 12 12 12 10C12 8 10 5 10 3Z" fill="#2D5016" fill-opacity="0.8"/>
  <path d="M3 8C5 6 8 5 10 5C10 7 9 10 7 12C5 10 3 8 3 8Z" fill="#8FBC8F" fill-opacity="0.7"/>
</svg>
